<svg xmlns="http://www.w3.org/2000/svg" viewBox="0 0 32 32" width="32" height="32">
  <defs>
    <linearGradient id="bellGradient" x1="0%" y1="0%" x2="100%" y2="100%">
      <stop offset="0%" style="stop-color:#0f172a;stop-opacity:1" />
      <stop offset="50%" style="stop-color:#1e40af;stop-opacity:1" />
      <stop offset="100%" style="stop-color:#3b82f6;stop-opacity:1" />
    </linearGradient>
  </defs>
  
  <!-- Bell body -->
  <path d="M16 4a1 1 0 0 1 1 1v1.17c3.32.65 5.85 3.5 5.85 6.98 0 2.12.44 3.85 1.04 5.26.29.68.58 1.23.79 1.64.21.4.29.65.29.95 0 1.1-.9 2-2 2H9.03c-1.1 0-2-.9-2-2 0-.3.08-.55.29-.95.21-.41.5-.96.79-1.64.6-1.41 1.04-3.14 1.04-5.26 0-3.48 2.53-6.33 5.85-6.98V5a1 1 0 0 1 1-1z" fill="url(#bellGradient)" stroke="white" stroke-width="0.5"/>
  
  <!-- Bell clapper -->
  <circle cx="16" cy="22" r="1.5" fill="url(#bellGradient)" stroke="white" stroke-width="0.3"/>
  
  <!-- Notification dot -->
  <circle cx="22" cy="8" r="2.5" fill="#ef4444" stroke="white" stroke-width="0.5"/>
</svg> 